<svg version="1.1" viewBox="0.0 0.0 45.0 70.0" fill="none" stroke="none" stroke-linecap="square" stroke-miterlimit="10" xmlns:xlink="http://www.w3.org/1999/xlink" xmlns="http://www.w3.org/2000/svg"><clipPath id="g36eaaaa130b_0_780.0"><path d="m0 0l45.0 0l0 70.0l-45.0 0l0 -70.0z" clip-rule="nonzero"/></clipPath><g clip-path="url(#g36eaaaa130b_0_780.0)"><path fill="#ffffff" d="m0 0l45.0 0l0 70.0l-45.0 0z" fill-rule="evenodd"/><path fill="#000000" fill-opacity="0.0" d="m0 12.307087l35.842518 0l0 45.385826l-35.842518 0z" fill-rule="evenodd"/><path fill="#595959" d="m11.265625 43.03625l3.484375 -0.3125q0.4375 2.453125 1.6875 3.5625q1.265625 1.109375 3.21875 1.109375q1.671875 0 2.9375 -0.765625q1.265625 -0.765625 2.0625 -2.046875q0.8125 -1.28125 1.359375 -3.453125q0.546875 -2.1875 0.546875 -4.453125q0 -0.234375 -0.03125 -0.71875q-1.078125 1.734375 -2.96875 2.8125q-1.890625 1.078125 -4.09375 1.078125q-3.671875 0 -6.21875 -2.65625q-2.53125 -2.671875 -2.53125 -7.03125q0 -4.5 2.640625 -7.234375q2.65625 -2.75 6.65625 -2.75q2.890625 0 5.28125 1.5625q2.390625 1.546875 3.625 4.421875q1.25 2.875 1.25 8.328125q0 5.65625 -1.234375 9.03125q-1.234375 3.359375 -3.671875 5.109375q-2.421875 1.75 -5.6875 1.75q-3.46875 0 -5.671875 -1.921875q-2.203125 -1.921875 -2.640625 -5.421875zm14.859375 -13.046875q0 -3.140625 -1.671875 -4.96875q-1.65625 -1.84375 -3.984375 -1.84375q-2.421875 0 -4.21875 1.984375q-1.796875 1.96875 -1.796875 5.125q0 2.828125 1.703125 4.59375q1.703125 1.765625 4.203125 1.765625q2.53125 0 4.140625 -1.765625q1.625 -1.765625 1.625 -4.890625z" fill-rule="nonzero"/><path fill="#ff0000" d="m1.7716535 8.254593l6.88189 -6.645669l6.8818893 6.645669l-6.8818893 6.64567z" fill-rule="evenodd"/><path fill="#ff0000" d="m29.36483 60.968502l6.8818893 -6.645668l6.8818893 6.645668l-6.8818893 6.645672z" fill-rule="evenodd"/></g></svg>