<svg version="1.1" viewBox="0.0 0.0 45.0 70.0" fill="none" stroke="none" stroke-linecap="square" stroke-miterlimit="10" xmlns:xlink="http://www.w3.org/1999/xlink" xmlns="http://www.w3.org/2000/svg"><clipPath id="g36eaaaa130b_0_750.0"><path d="m0 0l45.0 0l0 70.0l-45.0 0l0 -70.0z" clip-rule="nonzero"/></clipPath><g clip-path="url(#g36eaaaa130b_0_750.0)"><path fill="#ffffff" d="m0 0l45.0 0l0 70.0l-45.0 0z" fill-rule="evenodd"/><path fill="#000000" fill-opacity="0.0" d="m0 12.307087l35.842518 0l0 45.385826l-35.842518 0z" fill-rule="evenodd"/><path fill="#595959" d="m22.359375 49.88l0 -7.078125l-12.828125 0l0 -3.328125l13.5 -19.171875l2.953125 0l0 19.171875l4.0 0l0 3.328125l-4.0 0l0 7.078125l-3.625 0zm0 -10.40625l0 -13.34375l-9.265625 13.34375l9.265625 0z" fill-rule="nonzero"/><path fill="#ff0000" d="m1.7716535 8.254593l6.88189 -6.645669l6.8818893 6.645669l-6.8818893 6.64567z" fill-rule="evenodd"/><path fill="#ff0000" d="m29.36483 60.968502l6.8818893 -6.645668l6.8818893 6.645668l-6.8818893 6.645672z" fill-rule="evenodd"/></g></svg>