<svg version="1.1" viewBox="0.0 0.0 45.0 70.0" fill="none" stroke="none" stroke-linecap="square" stroke-miterlimit="10" xmlns:xlink="http://www.w3.org/1999/xlink" xmlns="http://www.w3.org/2000/svg"><clipPath id="g36eaaaa130b_0_798.0"><path d="m0 0l45.0 0l0 70.0l-45.0 0l0 -70.0z" clip-rule="nonzero"/></clipPath><g clip-path="url(#g36eaaaa130b_0_798.0)"><path fill="#ffffff" d="m0 0l45.0 0l0 70.0l-45.0 0z" fill-rule="evenodd"/><path fill="#000000" fill-opacity="0.0" d="m-2.656168 12.307087l35.84252 0l0 45.385826l-35.84252 0z" fill-rule="evenodd"/><path fill="#595959" d="m31.953207 46.708126q2.718752 1.875 5.031252 2.75l-1.15625 2.71875q-3.1875 -1.140625 -6.359377 -3.625q-3.28125 1.828125 -7.265625 1.828125q-4.015625 0 -7.28125 -1.9375q-3.265625 -1.9375 -5.03125 -5.4375q-1.765625 -3.515625 -1.765625 -7.921875q0 -4.375 1.765625 -7.96875q1.78125 -3.59375 5.0625 -5.46875q3.28125 -1.875 7.328125 -1.875q4.09375 0 7.375 1.953125q3.296877 1.9375 5.015627 5.4375q1.734375 3.5 1.734375 7.90625q0 3.65625 -1.109375 6.578125q-1.109375 2.90625 -3.343752 5.0625zm-8.625 -5.0q3.390625 0.953125 5.59375 2.828125q3.453127 -3.15625 3.453127 -9.46875q0 -3.59375 -1.2187519 -6.265625q-1.21875 -2.6875 -3.578125 -4.171875q-2.34375 -1.484375 -5.265625 -1.484375q-4.390625 0 -7.28125 3.0q-2.875 2.984375 -2.875 8.9375q0 5.78125 2.84375 8.875q2.859375 3.078125 7.3125 3.078125q2.09375 0 3.953125 -0.78125q-1.84375 -1.203125 -3.875 -1.703125l0.9375 -2.84375z" fill-rule="nonzero"/><path fill="#ff0000" d="m1.7716535 8.254593l6.88189 -6.645669l6.8818893 6.645669l-6.8818893 6.64567z" fill-rule="evenodd"/><path fill="#ff0000" d="m29.36483 60.968502l6.8818893 -6.645668l6.8818893 6.645668l-6.8818893 6.645672z" fill-rule="evenodd"/></g></svg>