<svg version="1.1" viewBox="0.0 0.0 45.0 70.0" fill="none" stroke="none" stroke-linecap="square" stroke-miterlimit="10" xmlns:xlink="http://www.w3.org/1999/xlink" xmlns="http://www.w3.org/2000/svg"><clipPath id="g36eaaaa130b_0_738.0"><path d="m0 0l45.0 0l0 70.0l-45.0 0l0 -70.0z" clip-rule="nonzero"/></clipPath><g clip-path="url(#g36eaaaa130b_0_738.0)"><path fill="#ffffff" d="m0 0l45.0 0l0 70.0l-45.0 0z" fill-rule="evenodd"/><path fill="#000000" fill-opacity="0.0" d="m0 12.307087l35.842518 0l0 45.385826l-35.842518 0z" fill-rule="evenodd"/><path fill="#595959" d="m29.8125 46.395626l0 3.484375l-19.5625 0q-0.046875 -1.3125 0.421875 -2.515625q0.75 -2.0 2.390625 -3.9375q1.640625 -1.9375 4.75 -4.484375q4.828125 -3.953125 6.515625 -6.265625q1.703125 -2.3125 1.703125 -4.375q0 -2.15625 -1.546875 -3.640625q-1.546875 -1.484375 -4.015625 -1.484375q-2.625 0 -4.203125 1.578125q-1.578125 1.578125 -1.59375 4.359375l-3.734375 -0.375q0.390625 -4.1875 2.890625 -6.375q2.5 -2.1875 6.71875 -2.1875q4.25 0 6.734375 2.359375q2.484375 2.359375 2.484375 5.859375q0 1.765625 -0.734375 3.484375q-0.71875 1.71875 -2.40625 3.625q-1.6875 1.890625 -5.59375 5.1875q-3.265625 2.75 -4.203125 3.734375q-0.921875 0.96875 -1.53125 1.96875l14.515625 0z" fill-rule="nonzero"/><path fill="#ff0000" d="m1.7716535 8.254593l6.88189 -6.645669l6.8818893 6.645669l-6.8818893 6.64567z" fill-rule="evenodd"/><path fill="#ff0000" d="m29.36483 60.968502l6.8818893 -6.645668l6.8818893 6.645668l-6.8818893 6.645672z" fill-rule="evenodd"/></g></svg>