<svg version="1.1" viewBox="0.0 0.0 45.0 70.0" fill="none" stroke="none" stroke-linecap="square" stroke-miterlimit="10" xmlns:xlink="http://www.w3.org/1999/xlink" xmlns="http://www.w3.org/2000/svg"><clipPath id="g36eaaaa130b_0_756.0"><path d="m0 0l45.0 0l0 70.0l-45.0 0l0 -70.0z" clip-rule="nonzero"/></clipPath><g clip-path="url(#g36eaaaa130b_0_756.0)"><path fill="#ffffff" d="m0 0l45.0 0l0 70.0l-45.0 0z" fill-rule="evenodd"/><path fill="#000000" fill-opacity="0.0" d="m0 12.307087l35.842518 0l0 45.385826l-35.842518 0z" fill-rule="evenodd"/><path fill="#595959" d="m10.71875 42.13l3.8125 -0.328125q0.421875 2.796875 1.96875 4.203125q1.546875 1.390625 3.71875 1.390625q2.625 0 4.4375 -1.96875q1.8125 -1.984375 1.8125 -5.25q0 -3.109375 -1.75 -4.90625q-1.734375 -1.796875 -4.5625 -1.796875q-1.75 0 -3.171875 0.796875q-1.40625 0.796875 -2.21875 2.0625l-3.40625 -0.4375l2.859375 -15.203125l14.71875 0l0 3.484375l-11.8125 0l-1.59375 7.9375q2.671875 -1.84375 5.59375 -1.84375q3.875 0 6.53125 2.6875q2.671875 2.671875 2.671875 6.890625q0 4.015625 -2.34375 6.9375q-2.84375 3.59375 -7.765625 3.59375q-4.03125 0 -6.59375 -2.25q-2.546875 -2.265625 -2.90625 -6.0z" fill-rule="nonzero"/><path fill="#ff0000" d="m1.7716535 8.254593l6.88189 -6.645669l6.8818893 6.645669l-6.8818893 6.64567z" fill-rule="evenodd"/><path fill="#ff0000" d="m29.36483 60.968502l6.8818893 -6.645668l6.8818893 6.645668l-6.8818893 6.645672z" fill-rule="evenodd"/></g></svg>