<svg version="1.1" viewBox="0.0 0.0 45.0 70.0" fill="none" stroke="none" stroke-linecap="square" stroke-miterlimit="10" xmlns:xlink="http://www.w3.org/1999/xlink" xmlns="http://www.w3.org/2000/svg"><clipPath id="g36eaaaa130b_0_744.0"><path d="m0 0l45.0 0l0 70.0l-45.0 0l0 -70.0z" clip-rule="nonzero"/></clipPath><g clip-path="url(#g36eaaaa130b_0_744.0)"><path fill="#ffffff" d="m0 0l45.0 0l0 70.0l-45.0 0z" fill-rule="evenodd"/><path fill="#000000" fill-opacity="0.0" d="m0 12.307087l35.842518 0l0 45.385826l-35.842518 0z" fill-rule="evenodd"/><path fill="#595959" d="m10.734375 42.0675l3.640625 -0.484375q0.625 3.09375 2.125 4.453125q1.5 1.359375 3.65625 1.359375q2.5625 0 4.328125 -1.765625q1.765625 -1.78125 1.765625 -4.40625q0 -2.5 -1.640625 -4.125q-1.625 -1.625 -4.140625 -1.625q-1.03125 0 -2.5625 0.40625l0.390625 -3.1875q0.375 0.03125 0.59375 0.03125q2.3125 0 4.171875 -1.203125q1.859375 -1.21875 1.859375 -3.734375q0 -2.0 -1.359375 -3.3125q-1.34375 -1.3125 -3.484375 -1.3125q-2.125 0 -3.53125 1.34375q-1.40625 1.328125 -1.8125 3.984375l-3.640625 -0.640625q0.671875 -3.65625 3.03125 -5.65625q2.359375 -2.015625 5.875 -2.015625q2.421875 0 4.453125 1.046875q2.046875 1.03125 3.125 2.828125q1.078125 1.796875 1.078125 3.8125q0 1.921875 -1.03125 3.5q-1.03125 1.5625 -3.046875 2.5q2.625 0.59375 4.078125 2.5q1.453125 1.90625 1.453125 4.78125q0 3.875 -2.828125 6.578125q-2.828125 2.6875 -7.140625 2.6875q-3.890625 0 -6.46875 -2.3125q-2.578125 -2.328125 -2.9375 -6.03125z" fill-rule="nonzero"/><path fill="#ff0000" d="m1.7716535 8.254593l6.88189 -6.645669l6.8818893 6.645669l-6.8818893 6.64567z" fill-rule="evenodd"/><path fill="#ff0000" d="m29.36483 60.968502l6.8818893 -6.645668l6.8818893 6.645668l-6.8818893 6.645672z" fill-rule="evenodd"/></g></svg>