<svg version="1.1" viewBox="0.0 0.0 45.0 70.0" fill="none" stroke="none" stroke-linecap="square" stroke-miterlimit="10" xmlns:xlink="http://www.w3.org/1999/xlink" xmlns="http://www.w3.org/2000/svg"><clipPath id="g36eaaaa130b_0_804.0"><path d="m0 0l45.0 0l0 70.0l-45.0 0l0 -70.0z" clip-rule="nonzero"/></clipPath><g clip-path="url(#g36eaaaa130b_0_804.0)"><path fill="#ffffff" d="m0 0l45.0 0l0 70.0l-45.0 0z" fill-rule="evenodd"/><path fill="#000000" fill-opacity="0.0" d="m0 12.307087l35.842518 0l0 45.385826l-35.842518 0z" fill-rule="evenodd"/><path fill="#595959" d="m12.03125 49.88l0 -29.578125l3.90625 0l0 14.671875l14.6875 -14.671875l5.3125 0l-12.40625 11.984375l12.953125 17.59375l-5.171875 0l-10.53125 -14.96875l-4.84375 4.71875l0 10.25l-3.90625 0z" fill-rule="nonzero"/><path fill="#ff0000" d="m1.7716535 8.254593l6.88189 -6.645669l6.8818893 6.645669l-6.8818893 6.64567z" fill-rule="evenodd"/><path fill="#ff0000" d="m29.36483 60.968502l6.8818893 -6.645668l6.8818893 6.645668l-6.8818893 6.645672z" fill-rule="evenodd"/></g></svg>