<svg version="1.1" viewBox="0.0 0.0 45.0 70.0" fill="none" stroke="none" stroke-linecap="square" stroke-miterlimit="10" xmlns:xlink="http://www.w3.org/1999/xlink" xmlns="http://www.w3.org/2000/svg"><clipPath id="g36eaaaa130b_0_714.0"><path d="m0 0l45.0 0l0 70.0l-45.0 0l0 -70.0z" clip-rule="nonzero"/></clipPath><g clip-path="url(#g36eaaaa130b_0_714.0)"><path fill="#ffffff" d="m0 0l45.0 0l0 70.0l-45.0 0z" fill-rule="evenodd"/><path fill="#000000" fill-opacity="0.0" d="m0 12.307087l35.842518 0l0 45.385826l-35.842518 0z" fill-rule="evenodd"/><path fill="#595959" d="m8.9375 49.88l11.359375 -29.578125l4.21875 0l12.109375 29.578125l-4.453125 0l-3.453125 -8.953125l-12.375 0l-3.25 8.953125l-4.15625 0zm8.53125 -12.140625l10.03125 0l-3.078125 -8.203125q-1.421875 -3.734375 -2.109375 -6.125q-0.5625 2.84375 -1.59375 5.640625l-3.25 8.6875z" fill-rule="nonzero"/><path fill="#ff0000" d="m1.7716535 8.254593l6.88189 -6.645669l6.8818893 6.645669l-6.8818893 6.64567z" fill-rule="evenodd"/><path fill="#ff0000" d="m29.36483 60.968502l6.8818893 -6.645668l6.8818893 6.645668l-6.8818893 6.645672z" fill-rule="evenodd"/></g></svg>