<svg version="1.1" viewBox="0.0 0.0 45.0 70.0" fill="none" stroke="none" stroke-linecap="square" stroke-miterlimit="10" xmlns:xlink="http://www.w3.org/1999/xlink" xmlns="http://www.w3.org/2000/svg"><clipPath id="g36eaaaa130b_0_792.0"><path d="m0 0l45.0 0l0 70.0l-45.0 0l0 -70.0z" clip-rule="nonzero"/></clipPath><g clip-path="url(#g36eaaaa130b_0_792.0)"><path fill="#ffffff" d="m0 0l45.0 0l0 70.0l-45.0 0z" fill-rule="evenodd"/><path fill="#000000" fill-opacity="0.0" d="m0 12.307087l35.842518 0l0 45.385826l-35.842518 0z" fill-rule="evenodd"/><path fill="#595959" d="m10.1875 41.489376l3.53125 -0.484375q0.140625 3.390625 1.265625 4.640625q1.140625 1.25 3.140625 1.25q1.46875 0 2.53125 -0.671875q1.078125 -0.6875 1.484375 -1.84375q0.40625 -1.15625 0.40625 -3.703125l0 -20.375l3.90625 0l0 20.15625q0 3.71875 -0.90625 5.75q-0.890625 2.03125 -2.84375 3.109375q-1.9375 1.0625 -4.5625 1.0625q-3.890625 0 -5.96875 -2.234375q-2.0625 -2.234375 -1.984375 -6.65625z" fill-rule="nonzero"/><path fill="#ff0000" d="m1.7716535 8.254593l6.88189 -6.645669l6.8818893 6.645669l-6.8818893 6.64567z" fill-rule="evenodd"/><path fill="#ff0000" d="m29.36483 60.968502l6.8818893 -6.645668l6.8818893 6.645668l-6.8818893 6.645672z" fill-rule="evenodd"/></g></svg>