<svg version="1.1" viewBox="0.0 0.0 45.0 70.0" fill="none" stroke="none" stroke-linecap="square" stroke-miterlimit="10" xmlns:xlink="http://www.w3.org/1999/xlink" xmlns="http://www.w3.org/2000/svg"><clipPath id="g36eaaaa130b_0_762.0"><path d="m0 0l45.0 0l0 70.0l-45.0 0l0 -70.0z" clip-rule="nonzero"/></clipPath><g clip-path="url(#g36eaaaa130b_0_762.0)"><path fill="#ffffff" d="m0 0l45.0 0l0 70.0l-45.0 0z" fill-rule="evenodd"/><path fill="#000000" fill-opacity="0.0" d="m0 12.307087l35.842518 0l0 45.385826l-35.842518 0z" fill-rule="evenodd"/><path fill="#595959" d="m29.5625 27.536251l-3.609375 0.28125q-0.484375 -2.140625 -1.375 -3.109375q-1.46875 -1.546875 -3.625 -1.546875q-1.734375 0 -3.046875 0.96875q-1.71875 1.25 -2.71875 3.65625q-0.984375 2.390625 -1.015625 6.84375q1.3125 -2.0 3.203125 -2.96875q1.890625 -0.96875 3.96875 -0.96875q3.640625 0 6.1875 2.671875q2.5625 2.671875 2.5625 6.90625q0 2.78125 -1.203125 5.1875q-1.203125 2.390625 -3.3125 3.65625q-2.09375 1.265625 -4.75 1.265625q-4.546875 0 -7.421875 -3.328125q-2.859375 -3.34375 -2.859375 -11.015625q0 -8.578125 3.171875 -12.46875q2.765625 -3.390625 7.453125 -3.390625q3.484375 0 5.71875 1.953125q2.234375 1.953125 2.671875 5.40625zm-14.828125 12.765625q0 1.875 0.796875 3.59375q0.796875 1.703125 2.21875 2.609375q1.4375 0.890625 3.015625 0.890625q2.296875 0 3.953125 -1.84375q1.65625 -1.859375 1.65625 -5.0625q0 -3.0625 -1.640625 -4.828125q-1.625 -1.765625 -4.109375 -1.765625q-2.46875 0 -4.1875 1.765625q-1.703125 1.765625 -1.703125 4.640625z" fill-rule="nonzero"/><path fill="#ff0000" d="m1.7716535 8.254593l6.88189 -6.645669l6.8818893 6.645669l-6.8818893 6.64567z" fill-rule="evenodd"/><path fill="#ff0000" d="m29.36483 60.968502l6.8818893 -6.645668l6.8818893 6.645668l-6.8818893 6.645672z" fill-rule="evenodd"/></g></svg>