<svg version="1.1" viewBox="0.0 0.0 45.0 70.0" fill="none" stroke="none" stroke-linecap="square" stroke-miterlimit="10" xmlns:xlink="http://www.w3.org/1999/xlink" xmlns="http://www.w3.org/2000/svg"><clipPath id="g3630de28fc8_0_30.0"><path d="m0 0l45.0 0l0 70.0l-45.0 0l0 -70.0z" clip-rule="nonzero"/></clipPath><g clip-path="url(#g3630de28fc8_0_30.0)"><path fill="#ffffff" d="m0 0l45.0 0l0 70.0l-45.0 0z" fill-rule="evenodd"/><path fill="#067306" d="m0.005249344 -3.3963253l45.007874 0l0 73.385826l-45.007874 0z" fill-rule="evenodd"/><path fill="#079f07" d="m12.496353 54.920715l10.033798 -14.156193l10.033798 14.156193z" fill-rule="evenodd"/><path fill="#067306" d="m1.3426139 41.898582l0 0c0 -7.191929 4.635149 -13.022137 10.352894 -13.022137l0 0c2.745759 0 5.379058 1.3719711 7.3206015 3.8140945c1.9415455 2.4421234 3.0322933 5.7543564 3.0322933 9.208042l0 0c0 7.191925 -4.635149 13.022133 -10.352895 13.022133l0 0c-5.7177453 0 -10.352894 -5.830208 -10.352894 -13.022133z" fill-rule="evenodd"/><path fill="#067306" d="m22.970236 41.885544l0 0c0 -7.191925 4.635149 -13.022133 10.352896 -13.022133l0 0c2.745758 0 5.379055 1.3719711 7.3206024 3.8140945c1.9415436 2.4421234 3.0322914 5.7543564 3.0322914 9.208038l0 0c0 7.191929 -4.635151 13.022137 -10.352894 13.022137l0 0c-5.7177467 0 -10.352896 -5.830208 -10.352896 -13.022137z" fill-rule="evenodd"/><path fill="#079f07" d="m36.348866 36.031673l0 0c0 4.142872 -3.5171661 7.501335 -7.8558064 7.501335l0 0c-2.0834885 0 -4.081644 -0.79031754 -5.5548916 -2.1970901c-1.4732494 -1.4067726 -2.3009129 -3.314766 -2.3009129 -5.304245l0 0c0 -4.142874 3.5171642 -7.501337 7.8558044 -7.501337l0 0c4.33864 0 7.8558064 3.3584633 7.8558064 7.501337z" fill-rule="evenodd"/><path fill="#079f07" d="m24.423063 36.031673l0 0c0 4.142872 -3.5171642 7.501335 -7.8558044 7.501335l0 0c-2.0834894 0 -4.081645 -0.79031754 -5.5548935 -2.1970901c-1.4732494 -1.4067726 -2.300912 -3.314766 -2.300912 -5.304245l0 0c0 -4.142874 3.5171633 -7.501337 7.8558054 -7.501337l0 0c4.33864 0 7.8558044 3.3584633 7.8558044 7.501337z" fill-rule="evenodd"/><path fill="#079f07" d="m9.761939 32.465145l12.758071 -17.386818l12.75807 17.386818z" fill-rule="evenodd"/></g></svg>