<svg version="1.1" viewBox="0.0 0.0 45.0 70.0" fill="none" stroke="none" stroke-linecap="square" stroke-miterlimit="10" xmlns:xlink="http://www.w3.org/1999/xlink" xmlns="http://www.w3.org/2000/svg"><clipPath id="p.0"><path d="m0 0l45.0 0l0 70.0l-45.0 0l0 -70.0z" clip-rule="nonzero"/></clipPath><g clip-path="url(#p.0)"><path fill="#ffffff" d="m0 0l45.0 0l0 70.0l-45.0 0z" fill-rule="evenodd"/><path fill="#ff0000" d="m3.401612 7.102042l0 0c0 -1.6683607 1.5622118 -3.0208344 3.4892976 -3.0208344l0 0c1.9270864 0 3.4892974 1.3524737 3.4892974 3.0208344l0 0c0 1.6683607 -1.562211 3.020835 -3.4892974 3.020835l0 0c-1.9270859 0 -3.4892976 -1.3524742 -3.4892976 -3.020835z" fill-rule="evenodd"/><path fill="#ff0000" d="m8.698672 7.102042l0 0c0 -1.6683607 1.562212 -3.0208344 3.4892979 -3.0208344l0 0c1.9270859 0 3.4892979 1.3524737 3.4892979 3.0208344l0 0c0 1.6683607 -1.562212 3.020835 -3.4892979 3.020835l0 0c-1.9270859 0 -3.4892979 -1.3524742 -3.4892979 -3.020835z" fill-rule="evenodd"/><path fill="#ff0000" d="m15.210675 8.538304l-5.666727 7.0017796l-5.666728 -7.0017796z" fill-rule="evenodd"/><path fill="#ff0000" d="m32.724445 61.56136l0 0c0 -1.6683617 1.5622139 -3.0208359 3.4892998 -3.0208359l0 0c1.9270859 0 3.489296 1.3524742 3.489296 3.0208359l0 0c0 1.6683617 -1.5622101 3.020832 -3.489296 3.020832l0 0c-1.9270859 0 -3.4892998 -1.3524704 -3.4892998 -3.020832z" fill-rule="evenodd"/><path fill="#ff0000" d="m38.021507 61.56136l0 0c0 -1.6683617 1.5622101 -3.0208359 3.489296 -3.0208359l0 0c1.9270859 0 3.4892998 1.3524742 3.4892998 3.0208359l0 0c0 1.6683617 -1.5622139 3.020832 -3.4892998 3.020832l0 0c-1.9270859 0 -3.489296 -1.3524704 -3.489296 -3.020832z" fill-rule="evenodd"/><path fill="#ff0000" d="m44.533512 62.997623l-5.666729 7.0017815l-5.666729 -7.0017815z" fill-rule="evenodd"/><path fill="#000000" fill-opacity="0.0" d="m-0.001312336 12.307087l35.842518 0l0 45.385826l-35.842518 0z" fill-rule="evenodd"/><path fill="#595959" d="m8.936188 49.88l11.359375 -29.578125l4.21875 0l12.109375 29.578125l-4.453125 0l-3.453125 -8.953125l-12.375 0l-3.25 8.953125l-4.15625 0zm8.53125 -12.140625l10.03125 0l-3.078125 -8.203125q-1.421875 -3.734375 -2.109375 -6.125q-0.5625 2.84375 -1.59375 5.640625l-3.25 8.6875z" fill-rule="nonzero"/></g></svg>