<svg version="1.1" viewBox="0.0 0.0 45.0 70.0" fill="none" stroke="none" stroke-linecap="square" stroke-miterlimit="10" xmlns:xlink="http://www.w3.org/1999/xlink" xmlns="http://www.w3.org/2000/svg"><clipPath id="g36eaaaa130b_0_130.0"><path d="m0 0l45.0 0l0 70.0l-45.0 0l0 -70.0z" clip-rule="nonzero"/></clipPath><g clip-path="url(#g36eaaaa130b_0_130.0)"><path fill="#ffffff" d="m0 0l45.0 0l0 70.0l-45.0 0z" fill-rule="evenodd"/><path fill="#ff0000" d="m3.401612 7.102042l0 0c0 -1.6683607 1.5622118 -3.0208344 3.4892976 -3.0208344l0 0c1.9270864 0 3.4892974 1.3524737 3.4892974 3.0208344l0 0c0 1.6683607 -1.562211 3.020835 -3.4892974 3.020835l0 0c-1.9270859 0 -3.4892976 -1.3524742 -3.4892976 -3.020835z" fill-rule="evenodd"/><path fill="#ff0000" d="m8.698672 7.102042l0 0c0 -1.6683607 1.562212 -3.0208344 3.4892979 -3.0208344l0 0c1.9270859 0 3.4892979 1.3524737 3.4892979 3.0208344l0 0c0 1.6683607 -1.562212 3.020835 -3.4892979 3.020835l0 0c-1.9270859 0 -3.4892979 -1.3524742 -3.4892979 -3.020835z" fill-rule="evenodd"/><path fill="#ff0000" d="m15.210675 8.538304l-5.666727 7.0017796l-5.666728 -7.0017796z" fill-rule="evenodd"/><path fill="#ff0000" d="m32.724445 61.56136l0 0c0 -1.6683617 1.5622139 -3.0208359 3.4892998 -3.0208359l0 0c1.9270859 0 3.489296 1.3524742 3.489296 3.0208359l0 0c0 1.6683617 -1.5622101 3.020832 -3.489296 3.020832l0 0c-1.9270859 0 -3.4892998 -1.3524704 -3.4892998 -3.020832z" fill-rule="evenodd"/><path fill="#ff0000" d="m38.021507 61.56136l0 0c0 -1.6683617 1.5622101 -3.0208359 3.489296 -3.0208359l0 0c1.9270859 0 3.4892998 1.3524742 3.4892998 3.0208359l0 0c0 1.6683617 -1.5622139 3.020832 -3.4892998 3.020832l0 0c-1.9270859 0 -3.489296 -1.3524704 -3.489296 -3.020832z" fill-rule="evenodd"/><path fill="#ff0000" d="m44.533512 62.997623l-5.666729 7.0017815l-5.666729 -7.0017815z" fill-rule="evenodd"/><path fill="#000000" fill-opacity="0.0" d="m-3.1194227 12.307087l35.84252 0l0 45.385826l-35.84252 0z" fill-rule="evenodd"/><path fill="#595959" d="m31.489952 46.708126q2.71875 1.875 5.03125 2.75l-1.15625 2.71875q-3.1875 -1.140625 -6.359375 -3.625q-3.28125 1.828125 -7.265625 1.828125q-4.015625 0 -7.28125 -1.9375q-3.265625 -1.9375 -5.03125 -5.4375q-1.7656245 -3.515625 -1.7656245 -7.921875q0 -4.375 1.7656245 -7.96875q1.78125 -3.59375 5.0625 -5.46875q3.28125 -1.875 7.328125 -1.875q4.09375 0 7.375 1.953125q3.296875 1.9375 5.015625 5.4375q1.734375 3.5 1.734375 7.90625q0 3.65625 -1.109375 6.578125q-1.109375 2.90625 -3.34375 5.0625zm-8.625 -5.0q3.390625 0.953125 5.59375 2.828125q3.453125 -3.15625 3.453125 -9.46875q0 -3.59375 -1.21875 -6.265625q-1.21875 -2.6875 -3.578125 -4.171875q-2.34375 -1.484375 -5.265625 -1.484375q-4.390625 0 -7.28125 3.0q-2.875 2.984375 -2.875 8.9375q0 5.78125 2.84375 8.875q2.859375 3.078125 7.3125 3.078125q2.09375 0 3.953125 -0.78125q-1.84375 -1.203125 -3.875 -1.703125l0.9375 -2.84375z" fill-rule="nonzero"/></g></svg>