<svg version="1.1" viewBox="0.0 0.0 45.0 70.0" fill="none" stroke="none" stroke-linecap="square" stroke-miterlimit="10" xmlns:xlink="http://www.w3.org/1999/xlink" xmlns="http://www.w3.org/2000/svg"><clipPath id="g3630de28fc8_0_46.0"><path d="m0 0l45.0 0l0 70.0l-45.0 0l0 -70.0z" clip-rule="nonzero"/></clipPath><g clip-path="url(#g3630de28fc8_0_46.0)"><path fill="#ffffff" d="m0 0l45.0 0l0 70.0l-45.0 0z" fill-rule="evenodd"/><path fill="#067306" d="m0.005249344 -3.3963253l45.007874 0l0 73.385826l-45.007874 0z" fill-rule="evenodd"/><path fill="#079f07" d="m11.85428 54.92098l10.66754 -14.953163l10.6675415 14.953163z" fill-rule="evenodd"/><path fill="#067306" d="m-0.003937008 41.165718l0 0c0 -7.596817 4.9279084 -13.755259 11.00679 -13.755259l0 0c2.9191828 0 5.7188034 1.4492111 7.782976 4.028822c2.0641747 2.5796127 3.223814 6.0783157 3.223814 9.726437l0 0c0 7.596821 -4.927908 13.75526 -11.00679 13.75526l0 0c-6.078882 0 -11.00679 -6.1584396 -11.00679 -13.75526z" fill-rule="evenodd"/><path fill="#067306" d="m22.9897 41.15195l0 0c0 -7.596821 4.927908 -13.75526 11.00679 -13.75526l0 0c2.9191818 0 5.7188034 1.4492111 7.782978 4.028822c2.0641708 2.5796108 3.223812 6.0783176 3.223812 9.7264385l0 0c0 7.596821 -4.927906 13.75526 -11.00679 13.75526l0 0c-6.078882 0 -11.00679 -6.1584396 -11.00679 -13.75526z" fill-rule="evenodd"/><path fill="#079f07" d="m37.213333 34.968513l0 0c0 4.37611 -3.7393112 7.923649 -8.351984 7.923649l0 0c-2.2150822 0 -4.339443 -0.83480835 -5.9057426 -2.3207817c-1.5663013 -1.4859734 -2.4462395 -3.5013847 -2.4462395 -5.602867l0 0c0 -4.37611 3.7393093 -7.923649 8.351982 -7.923649l0 0c4.612673 0 8.351984 3.5475388 8.351984 7.923649z" fill-rule="evenodd"/><path fill="#079f07" d="m24.534288 34.968513l0 0c0 4.37611 -3.7393093 7.923649 -8.351982 7.923649l0 0c-2.215084 0 -4.339443 -0.83480835 -5.9057436 -2.3207817c-1.5663004 -1.4859734 -2.4462395 -3.5013847 -2.4462395 -5.602867l0 0c0 -4.37611 3.7393103 -7.923649 8.351983 -7.923649l0 0c4.612673 0 8.351982 3.5475388 8.351982 7.923649z" fill-rule="evenodd"/><path fill="#079f07" d="m22.498787 33.41907l0 0c-3.9970741 0 -7.237342 -4.105625 -7.237342 -9.170174l0 0c0 -5.0645466 3.2402678 -9.170173 7.237342 -9.170173l0 0c3.9970722 0 7.237341 4.105626 7.237341 9.170173l0 0c0 5.0645485 -3.2402687 9.170174 -7.237341 9.170174z" fill-rule="evenodd"/></g></svg>