<svg version="1.1" viewBox="0.0 0.0 45.0 70.0" fill="none" stroke="none" stroke-linecap="square" stroke-miterlimit="10" xmlns:xlink="http://www.w3.org/1999/xlink" xmlns="http://www.w3.org/2000/svg"><clipPath id="g3630de28fc8_0_13.0"><path d="m0 0l45.0 0l0 70.0l-45.0 0l0 -70.0z" clip-rule="nonzero"/></clipPath><g clip-path="url(#g3630de28fc8_0_13.0)"><path fill="#ffffff" d="m0 0l45.0 0l0 70.0l-45.0 0z" fill-rule="evenodd"/><path fill="#067306" d="m0.005249344 -3.3963253l45.007874 0l0 73.385826l-45.007874 0z" fill-rule="evenodd"/><path fill="#079f07" d="m2.120398 25.58186l0 0c0 -5.8007793 5.189243 -10.503241 11.590498 -10.503241l0 0c6.4012547 0 11.590498 4.7024612 11.590498 10.503241l0 0c0 5.8007793 -5.1892433 10.5032425 -11.590498 10.5032425l0 0c-6.4012547 0 -11.590498 -4.702463 -11.590498 -10.5032425z" fill-rule="evenodd"/><path fill="#079f07" d="m19.715792 25.58186l0 0c0 -5.8007793 5.1892433 -10.503241 11.590498 -10.503241l0 0c6.4012566 0 11.590496 4.7024612 11.590496 10.503241l0 0c0 5.8007793 -5.1892395 10.5032425 -11.590496 10.5032425l0 0c-6.4012547 0 -11.590498 -4.702463 -11.590498 -10.5032425z" fill-rule="evenodd"/><path fill="#079f07" d="m41.346893 30.57565l-18.823326 24.344719l-18.823328 -24.344719z" fill-rule="evenodd"/></g></svg>