<svg version="1.1" viewBox="0.0 0.0 45.0 70.0" fill="none" stroke="none" stroke-linecap="square" stroke-miterlimit="10" xmlns:xlink="http://www.w3.org/1999/xlink" xmlns="http://www.w3.org/2000/svg"><clipPath id="g36eaaaa130b_0_670.0"><path d="m0 0l45.0 0l0 70.0l-45.0 0l0 -70.0z" clip-rule="nonzero"/></clipPath><g clip-path="url(#g36eaaaa130b_0_670.0)"><path fill="#ffffff" d="m0 0l45.0 0l0 70.0l-45.0 0z" fill-rule="evenodd"/><path fill="#000000" fill-opacity="0.0" d="m-2.9002624 9.6482935l35.842518 0l0 45.38583l-35.842518 0z" fill-rule="evenodd"/><path fill="#595959" d="m31.709112 44.04933q2.718752 1.875 5.031252 2.75l-1.15625 2.71875q-3.1875 -1.140625 -6.359377 -3.625q-3.28125 1.828125 -7.265625 1.828125q-4.015625 0 -7.28125 -1.9375q-3.265625 -1.9375 -5.03125 -5.4375q-1.7656245 -3.515625 -1.7656245 -7.921875q0 -4.374998 1.7656245 -7.968748q1.78125 -3.59375 5.0625 -5.46875q3.28125 -1.875 7.328125 -1.875q4.09375 0 7.375 1.953125q3.296877 1.9375 5.015627 5.4375q1.734375 3.5 1.734375 7.906248q0 3.65625 -1.109375 6.578125q-1.109375 2.90625 -3.343752 5.0625zm-8.625 -5.0q3.390625 0.953125 5.59375 2.828125q3.453127 -3.15625 3.453127 -9.46875q0 -3.593748 -1.2187519 -6.265623q-1.21875 -2.6875 -3.578125 -4.171875q-2.34375 -1.484375 -5.265625 -1.484375q-4.390625 0 -7.28125 3.0q-2.875 2.984375 -2.875 8.937498q0 5.78125 2.84375 8.875q2.859375 3.078125 7.3125 3.078125q2.09375 0 3.953125 -0.78125q-1.84375 -1.203125 -3.875 -1.703125l0.9375 -2.84375z" fill-rule="nonzero"/><path fill="#000000" d="m4.954135 16.044619l4.4566927 -5.7007866l4.4566927 5.7007866z" fill-rule="evenodd"/><path fill="#ffffff" d="m0 10.800525l0 0c0 -2.896233 2.0587852 -5.2440944 4.5984254 -5.2440944l0 0c1.2195778 0 2.3892055 0.5525012 3.2515774 1.5359597c0.8623719 0.9834585 1.346848 2.3173141 1.346848 3.7081347l0 0c0 2.8962336 -2.0587854 5.244094 -4.5984254 5.244094l0 0c-2.5396402 0 -4.5984254 -2.3478603 -4.5984254 -5.244094z" fill-rule="evenodd"/><path fill="#ffffff" d="m9.606299 10.795276l0 0c0 -2.8962336 2.0587845 -5.2440944 4.598425 -5.2440944l0 0c1.2195787 0 2.389205 0.5525012 3.2515783 1.5359597c0.86237144 0.9834585 1.3468475 2.3173141 1.3468475 3.7081347l0 0c0 2.8962336 -2.0587864 5.244094 -4.598426 5.244094l0 0c-2.5396404 0 -4.598425 -2.3478603 -4.598425 -5.244094z" fill-rule="evenodd"/><path fill="#000000" d="m15.548658 8.437884l0 0c0 1.6683617 -1.562211 3.020835 -3.489297 3.020835l0 0c-1.9270859 0 -3.4892979 -1.3524733 -3.4892979 -3.020835l0 0c0 -1.6683602 1.562212 -3.020834 3.4892979 -3.020834l0 0c1.9270859 0 3.489297 1.3524737 3.489297 3.020834z" fill-rule="evenodd"/><path fill="#000000" d="m10.251598 8.437884l0 0c0 1.6683617 -1.562212 3.020835 -3.4892974 3.020835l0 0c-1.9270859 0 -3.4892979 -1.3524733 -3.4892979 -3.020835l0 0c0 -1.6683602 1.562212 -3.020834 3.4892979 -3.020834l0 0c1.9270854 0 3.4892974 1.3524737 3.4892974 3.020834z" fill-rule="evenodd"/><path fill="#000000" d="m9.401205 7.847171l0 0c-1.6699009 0 -3.0236225 -1.5652409 -3.0236225 -3.4960628l0 0c0 -1.9308224 1.3537216 -3.4960632 3.0236225 -3.4960632l0 0c1.6699 0 3.0236216 1.5652409 3.0236216 3.4960632l0 0c0 1.9308219 -1.3537216 3.4960628 -3.0236216 3.4960628z" fill-rule="evenodd"/><path fill="#000000" d="m31.150986 66.95801l4.4566917 -5.7007904l4.4566956 5.7007904z" fill-rule="evenodd"/><path fill="#ffffff" d="m26.19685 61.71391l0 0c0 -2.8962326 2.0587864 -5.244091 4.598425 -5.244091l0 0c1.2195797 0 2.3892078 0.55249786 3.2515774 1.5359573c0.86237335 0.9834595 1.3468475 2.3173141 1.3468475 3.7081337l0 0c0 2.8962364 -2.0587845 5.2440987 -4.598425 5.2440987l0 0c-2.5396385 0 -4.598425 -2.3478622 -4.598425 -5.2440987z" fill-rule="evenodd"/><path fill="#ffffff" d="m35.80315 61.70866l0 0c0 -2.8962326 2.0587845 -5.244095 4.598423 -5.244095l0 0c1.2195816 0 2.389206 0.5525017 3.2515793 1.5359612c0.86237335 0.9834595 1.3468475 2.3173141 1.3468475 3.7081337l0 0c0 2.8962364 -2.0587845 5.2440987 -4.598427 5.2440987l0 0c-2.5396385 0 -4.598423 -2.3478622 -4.598423 -5.2440987z" fill-rule="evenodd"/><path fill="#000000" d="m41.74551 59.35127l0 0c0 1.6683617 -1.5622139 3.0208359 -3.4892998 3.0208359l0 0c-1.9270859 0 -3.489296 -1.3524742 -3.489296 -3.0208359l0 0c0 -1.6683578 1.5622101 -3.020832 3.489296 -3.020832l0 0c1.9270859 0 3.4892998 1.3524742 3.4892998 3.020832z" fill-rule="evenodd"/><path fill="#000000" d="m36.44845 59.35127l0 0c0 1.6683617 -1.5622101 3.0208359 -3.489296 3.0208359l0 0c-1.9270878 0 -3.4892979 -1.3524742 -3.4892979 -3.0208359l0 0c0 -1.6683578 1.5622101 -3.020832 3.4892979 -3.020832l0 0c1.9270859 0 3.489296 1.3524742 3.489296 3.020832z" fill-rule="evenodd"/><path fill="#000000" d="m35.598057 58.760555l0 0c-1.6699028 0 -3.0236244 -1.565239 -3.0236244 -3.4960632l0 0c0 -1.9308205 1.3537216 -3.4960632 3.0236244 -3.4960632l0 0c1.669899 0 3.0236206 1.5652428 3.0236206 3.4960632l0 0c0 1.9308243 -1.3537216 3.4960632 -3.0236206 3.4960632z" fill-rule="evenodd"/></g></svg>