<svg version="1.1" viewBox="0.0 0.0 45.0 70.0" fill="none" stroke="none" stroke-linecap="square" stroke-miterlimit="10" xmlns:xlink="http://www.w3.org/1999/xlink" xmlns="http://www.w3.org/2000/svg"><clipPath id="g36eaaaa130b_0_538.0"><path d="m0 0l45.0 0l0 70.0l-45.0 0l0 -70.0z" clip-rule="nonzero"/></clipPath><g clip-path="url(#g36eaaaa130b_0_538.0)"><path fill="#ffffff" d="m0 0l45.0 0l0 70.0l-45.0 0z" fill-rule="evenodd"/><path fill="#000000" fill-opacity="0.0" d="m0 12.307087l35.842518 0l0 45.385826l-35.842518 0z" fill-rule="evenodd"/><path fill="#595959" d="m29.5625 27.536251l-3.609375 0.28125q-0.484375 -2.140625 -1.375 -3.109375q-1.46875 -1.546875 -3.625 -1.546875q-1.734375 0 -3.046875 0.96875q-1.71875 1.25 -2.71875 3.65625q-0.984375 2.390625 -1.015625 6.84375q1.3125 -2.0 3.203125 -2.96875q1.890625 -0.96875 3.96875 -0.96875q3.640625 0 6.1875 2.671875q2.5625 2.671875 2.5625 6.90625q0 2.78125 -1.203125 5.1875q-1.203125 2.390625 -3.3125 3.65625q-2.09375 1.265625 -4.75 1.265625q-4.546875 0 -7.421875 -3.328125q-2.859375 -3.34375 -2.859375 -11.015625q0 -8.578125 3.171875 -12.46875q2.765625 -3.390625 7.453125 -3.390625q3.484375 0 5.71875 1.953125q2.234375 1.953125 2.671875 5.40625zm-14.828125 12.765625q0 1.875 0.796875 3.59375q0.796875 1.703125 2.21875 2.609375q1.4375 0.890625 3.015625 0.890625q2.296875 0 3.953125 -1.84375q1.65625 -1.859375 1.65625 -5.0625q0 -3.0625 -1.640625 -4.828125q-1.625 -1.765625 -4.109375 -1.765625q-2.46875 0 -4.1875 1.765625q-1.703125 1.765625 -1.703125 4.640625z" fill-rule="nonzero"/><path fill="#000000" d="m4.954135 16.044619l4.4566927 -5.7007866l4.4566927 5.7007866z" fill-rule="evenodd"/><path fill="#ffffff" d="m0 10.800525l0 0c0 -2.896233 2.0587852 -5.2440944 4.5984254 -5.2440944l0 0c1.2195778 0 2.3892055 0.5525012 3.2515774 1.5359597c0.8623719 0.9834585 1.346848 2.3173141 1.346848 3.7081347l0 0c0 2.8962336 -2.0587854 5.244094 -4.5984254 5.244094l0 0c-2.5396402 0 -4.5984254 -2.3478603 -4.5984254 -5.244094z" fill-rule="evenodd"/><path fill="#ffffff" d="m9.606299 10.795276l0 0c0 -2.8962336 2.0587845 -5.2440944 4.598425 -5.2440944l0 0c1.2195787 0 2.389205 0.5525012 3.2515783 1.5359597c0.86237144 0.9834585 1.3468475 2.3173141 1.3468475 3.7081347l0 0c0 2.8962336 -2.0587864 5.244094 -4.598426 5.244094l0 0c-2.5396404 0 -4.598425 -2.3478603 -4.598425 -5.244094z" fill-rule="evenodd"/><path fill="#000000" d="m15.548658 8.437884l0 0c0 1.6683617 -1.562211 3.020835 -3.489297 3.020835l0 0c-1.9270859 0 -3.4892979 -1.3524733 -3.4892979 -3.020835l0 0c0 -1.6683602 1.562212 -3.020834 3.4892979 -3.020834l0 0c1.9270859 0 3.489297 1.3524737 3.489297 3.020834z" fill-rule="evenodd"/><path fill="#000000" d="m10.251598 8.437884l0 0c0 1.6683617 -1.562212 3.020835 -3.4892974 3.020835l0 0c-1.9270859 0 -3.4892979 -1.3524733 -3.4892979 -3.020835l0 0c0 -1.6683602 1.562212 -3.020834 3.4892979 -3.020834l0 0c1.9270854 0 3.4892974 1.3524737 3.4892974 3.020834z" fill-rule="evenodd"/><path fill="#000000" d="m9.401205 7.847171l0 0c-1.6699009 0 -3.0236225 -1.5652409 -3.0236225 -3.4960628l0 0c0 -1.9308224 1.3537216 -3.4960632 3.0236225 -3.4960632l0 0c1.6699 0 3.0236216 1.5652409 3.0236216 3.4960632l0 0c0 1.9308219 -1.3537216 3.4960628 -3.0236216 3.4960628z" fill-rule="evenodd"/><path fill="#000000" d="m31.150986 66.95801l4.4566917 -5.7007904l4.4566956 5.7007904z" fill-rule="evenodd"/><path fill="#ffffff" d="m26.19685 61.71391l0 0c0 -2.8962326 2.0587864 -5.244091 4.598425 -5.244091l0 0c1.2195797 0 2.3892078 0.55249786 3.2515774 1.5359573c0.86237335 0.9834595 1.3468475 2.3173141 1.3468475 3.7081337l0 0c0 2.8962364 -2.0587845 5.2440987 -4.598425 5.2440987l0 0c-2.5396385 0 -4.598425 -2.3478622 -4.598425 -5.2440987z" fill-rule="evenodd"/><path fill="#ffffff" d="m35.80315 61.70866l0 0c0 -2.8962326 2.0587845 -5.244095 4.598423 -5.244095l0 0c1.2195816 0 2.389206 0.5525017 3.2515793 1.5359612c0.86237335 0.9834595 1.3468475 2.3173141 1.3468475 3.7081337l0 0c0 2.8962364 -2.0587845 5.2440987 -4.598427 5.2440987l0 0c-2.5396385 0 -4.598423 -2.3478622 -4.598423 -5.2440987z" fill-rule="evenodd"/><path fill="#000000" d="m41.74551 59.35127l0 0c0 1.6683617 -1.5622139 3.0208359 -3.4892998 3.0208359l0 0c-1.9270859 0 -3.489296 -1.3524742 -3.489296 -3.0208359l0 0c0 -1.6683578 1.5622101 -3.020832 3.489296 -3.020832l0 0c1.9270859 0 3.4892998 1.3524742 3.4892998 3.020832z" fill-rule="evenodd"/><path fill="#000000" d="m36.44845 59.35127l0 0c0 1.6683617 -1.5622101 3.0208359 -3.489296 3.0208359l0 0c-1.9270878 0 -3.4892979 -1.3524742 -3.4892979 -3.0208359l0 0c0 -1.6683578 1.5622101 -3.020832 3.4892979 -3.020832l0 0c1.9270859 0 3.489296 1.3524742 3.489296 3.020832z" fill-rule="evenodd"/><path fill="#000000" d="m35.598057 58.760555l0 0c-1.6699028 0 -3.0236244 -1.565239 -3.0236244 -3.4960632l0 0c0 -1.9308205 1.3537216 -3.4960632 3.0236244 -3.4960632l0 0c1.669899 0 3.0236206 1.5652428 3.0236206 3.4960632l0 0c0 1.9308243 -1.3537216 3.4960632 -3.0236206 3.4960632z" fill-rule="evenodd"/></g></svg>