<svg version="1.1" viewBox="0.0 0.0 45.0 70.0" fill="none" stroke="none" stroke-linecap="square" stroke-miterlimit="10" xmlns:xlink="http://www.w3.org/1999/xlink" xmlns="http://www.w3.org/2000/svg"><clipPath id="g36eaaaa130b_0_106.0"><path d="m0 0l45.0 0l0 70.0l-45.0 0l0 -70.0z" clip-rule="nonzero"/></clipPath><g clip-path="url(#g36eaaaa130b_0_106.0)"><path fill="#ffffff" d="m0 0l45.0 0l0 70.0l-45.0 0z" fill-rule="evenodd"/><path fill="#ff0000" d="m3.401612 7.102042l0 0c0 -1.6683607 1.5622118 -3.0208344 3.4892976 -3.0208344l0 0c1.9270864 0 3.4892974 1.3524737 3.4892974 3.0208344l0 0c0 1.6683607 -1.562211 3.020835 -3.4892974 3.020835l0 0c-1.9270859 0 -3.4892976 -1.3524742 -3.4892976 -3.020835z" fill-rule="evenodd"/><path fill="#ff0000" d="m8.698672 7.102042l0 0c0 -1.6683607 1.562212 -3.0208344 3.4892979 -3.0208344l0 0c1.9270859 0 3.4892979 1.3524737 3.4892979 3.0208344l0 0c0 1.6683607 -1.562212 3.020835 -3.4892979 3.020835l0 0c-1.9270859 0 -3.4892979 -1.3524742 -3.4892979 -3.020835z" fill-rule="evenodd"/><path fill="#ff0000" d="m15.210675 8.538304l-5.666727 7.0017796l-5.666728 -7.0017796z" fill-rule="evenodd"/><path fill="#ff0000" d="m32.724445 61.56136l0 0c0 -1.6683617 1.5622139 -3.0208359 3.4892998 -3.0208359l0 0c1.9270859 0 3.489296 1.3524742 3.489296 3.0208359l0 0c0 1.6683617 -1.5622101 3.020832 -3.489296 3.020832l0 0c-1.9270859 0 -3.4892998 -1.3524704 -3.4892998 -3.020832z" fill-rule="evenodd"/><path fill="#ff0000" d="m38.021507 61.56136l0 0c0 -1.6683617 1.5622101 -3.0208359 3.489296 -3.0208359l0 0c1.9270859 0 3.4892998 1.3524742 3.4892998 3.0208359l0 0c0 1.6683617 -1.5622139 3.020832 -3.4892998 3.020832l0 0c-1.9270859 0 -3.489296 -1.3524704 -3.489296 -3.020832z" fill-rule="evenodd"/><path fill="#ff0000" d="m44.533512 62.997623l-5.666729 7.0017815l-5.666729 -7.0017815z" fill-rule="evenodd"/><path fill="#000000" fill-opacity="0.0" d="m-10.837411 12.307087l66.67717 0l0 45.385826l-66.67717 0z" fill-rule="evenodd"/><path fill="#595959" d="m14.907056 49.88l-3.625 0l0 -23.140625q-1.3125 1.25 -3.453125 2.5q-2.125 1.25 -3.8125 1.875l0 -3.515625q3.046875 -1.4375 5.328125 -3.46875q2.28125 -2.03125 3.234375 -3.953125l2.328125 0l0 29.703125zm9.312869 -14.59375q0 -5.25 1.078125 -8.4375q1.078125 -3.203125 3.203125 -4.9375q2.125 -1.734375 5.359375 -1.734375q2.390625 0 4.171875 0.96875q1.796875 0.953125 2.96875 2.765625q1.171875 1.796875 1.828125 4.390625q0.671875 2.59375 0.671875 6.984375q0 5.203125 -1.0625 8.40625q-1.0625 3.203125 -3.203125 4.953125q-2.125 1.734375 -5.375 1.734375q-4.28125 0 -6.71875 -3.0625q-2.921875 -3.6875 -2.921875 -12.03125zm3.734375 0q0 7.28125 1.703125 9.703125q1.703125 2.40625 4.203125 2.40625q2.5 0 4.203125 -2.421875q1.71875 -2.421875 1.71875 -9.6875q0 -7.296875 -1.71875 -9.703125q-1.703125 -2.40625 -4.234375 -2.40625q-2.515625 0 -4.0 2.125q-1.875 2.703125 -1.875 9.984375z" fill-rule="nonzero"/></g></svg>