<svg version="1.1" viewBox="0.0 0.0 45.0 70.0" fill="none" stroke="none" stroke-linecap="square" stroke-miterlimit="10" xmlns:xlink="http://www.w3.org/1999/xlink" xmlns="http://www.w3.org/2000/svg"><clipPath id="g36eaaaa130b_0_94.0"><path d="m0 0l45.0 0l0 70.0l-45.0 0l0 -70.0z" clip-rule="nonzero"/></clipPath><g clip-path="url(#g36eaaaa130b_0_94.0)"><path fill="#ffffff" d="m0 0l45.0 0l0 70.0l-45.0 0z" fill-rule="evenodd"/><path fill="#ff0000" d="m3.401612 7.102042l0 0c0 -1.6683607 1.5622118 -3.0208344 3.4892976 -3.0208344l0 0c1.9270864 0 3.4892974 1.3524737 3.4892974 3.0208344l0 0c0 1.6683607 -1.562211 3.020835 -3.4892974 3.020835l0 0c-1.9270859 0 -3.4892976 -1.3524742 -3.4892976 -3.020835z" fill-rule="evenodd"/><path fill="#ff0000" d="m8.698672 7.102042l0 0c0 -1.6683607 1.562212 -3.0208344 3.4892979 -3.0208344l0 0c1.9270859 0 3.4892979 1.3524737 3.4892979 3.0208344l0 0c0 1.6683607 -1.562212 3.020835 -3.4892979 3.020835l0 0c-1.9270859 0 -3.4892979 -1.3524742 -3.4892979 -3.020835z" fill-rule="evenodd"/><path fill="#ff0000" d="m15.210675 8.538304l-5.666727 7.0017796l-5.666728 -7.0017796z" fill-rule="evenodd"/><path fill="#ff0000" d="m32.724445 61.56136l0 0c0 -1.6683617 1.5622139 -3.0208359 3.4892998 -3.0208359l0 0c1.9270859 0 3.489296 1.3524742 3.489296 3.0208359l0 0c0 1.6683617 -1.5622101 3.020832 -3.489296 3.020832l0 0c-1.9270859 0 -3.4892998 -1.3524704 -3.4892998 -3.020832z" fill-rule="evenodd"/><path fill="#ff0000" d="m38.021507 61.56136l0 0c0 -1.6683617 1.5622101 -3.0208359 3.489296 -3.0208359l0 0c1.9270859 0 3.4892998 1.3524742 3.4892998 3.0208359l0 0c0 1.6683617 -1.5622139 3.020832 -3.4892998 3.020832l0 0c-1.9270859 0 -3.489296 -1.3524704 -3.489296 -3.020832z" fill-rule="evenodd"/><path fill="#ff0000" d="m44.533512 62.997623l-5.666729 7.0017815l-5.666729 -7.0017815z" fill-rule="evenodd"/><path fill="#000000" fill-opacity="0.0" d="m4.57874 12.307087l35.84252 0l0 45.385826l-35.84252 0z" fill-rule="evenodd"/><path fill="#595959" d="m15.844365 43.03625l3.484376 -0.3125q0.4375 2.453125 1.6875 3.5625q1.265625 1.109375 3.21875 1.109375q1.671875 0 2.9375 -0.765625q1.265625 -0.765625 2.0625 -2.046875q0.8125 -1.28125 1.359375 -3.453125q0.546875 -2.1875 0.546875 -4.453125q0 -0.234375 -0.03125 -0.71875q-1.078125 1.734375 -2.96875 2.8125q-1.890625 1.078125 -4.09375 1.078125q-3.671875 0 -6.21875 -2.65625q-2.531251 -2.671875 -2.531251 -7.03125q0 -4.5 2.640626 -7.234375q2.65625 -2.75 6.65625 -2.75q2.890625 0 5.28125 1.5625q2.390623 1.546875 3.624998 4.421875q1.25 2.875 1.25 8.328125q0 5.65625 -1.234375 9.03125q-1.234375 3.359375 -3.671873 5.109375q-2.421875 1.75 -5.6875 1.75q-3.46875 0 -5.671875 -1.921875q-2.203125 -1.921875 -2.640626 -5.421875zm14.859376 -13.046875q0 -3.140625 -1.671875 -4.96875q-1.65625 -1.84375 -3.984375 -1.84375q-2.421875 0 -4.21875 1.984375q-1.796875 1.96875 -1.796875 5.125q0 2.828125 1.703125 4.59375q1.703125 1.765625 4.203125 1.765625q2.53125 0 4.140625 -1.765625q1.625 -1.765625 1.625 -4.890625z" fill-rule="nonzero"/></g></svg>