<svg version="1.1" viewBox="0.0 0.0 45.0 70.0" fill="none" stroke="none" stroke-linecap="square" stroke-miterlimit="10" xmlns:xlink="http://www.w3.org/1999/xlink" xmlns="http://www.w3.org/2000/svg"><clipPath id="g36eaaaa130b_0_58.0"><path d="m0 0l45.0 0l0 70.0l-45.0 0l0 -70.0z" clip-rule="nonzero"/></clipPath><g clip-path="url(#g36eaaaa130b_0_58.0)"><path fill="#ffffff" d="m0 0l45.0 0l0 70.0l-45.0 0z" fill-rule="evenodd"/><path fill="#ff0000" d="m3.401612 7.102042l0 0c0 -1.6683607 1.5622118 -3.0208344 3.4892976 -3.0208344l0 0c1.9270864 0 3.4892974 1.3524737 3.4892974 3.0208344l0 0c0 1.6683607 -1.562211 3.020835 -3.4892974 3.020835l0 0c-1.9270859 0 -3.4892976 -1.3524742 -3.4892976 -3.020835z" fill-rule="evenodd"/><path fill="#ff0000" d="m8.698672 7.102042l0 0c0 -1.6683607 1.562212 -3.0208344 3.4892979 -3.0208344l0 0c1.9270859 0 3.4892979 1.3524737 3.4892979 3.0208344l0 0c0 1.6683607 -1.562212 3.020835 -3.4892979 3.020835l0 0c-1.9270859 0 -3.4892979 -1.3524742 -3.4892979 -3.020835z" fill-rule="evenodd"/><path fill="#ff0000" d="m15.210675 8.538304l-5.666727 7.0017796l-5.666728 -7.0017796z" fill-rule="evenodd"/><path fill="#ff0000" d="m32.724445 61.56136l0 0c0 -1.6683617 1.5622139 -3.0208359 3.4892998 -3.0208359l0 0c1.9270859 0 3.489296 1.3524742 3.489296 3.0208359l0 0c0 1.6683617 -1.5622101 3.020832 -3.489296 3.020832l0 0c-1.9270859 0 -3.4892998 -1.3524704 -3.4892998 -3.020832z" fill-rule="evenodd"/><path fill="#ff0000" d="m38.021507 61.56136l0 0c0 -1.6683617 1.5622101 -3.0208359 3.489296 -3.0208359l0 0c1.9270859 0 3.4892998 1.3524742 3.4892998 3.0208359l0 0c0 1.6683617 -1.5622139 3.020832 -3.4892998 3.020832l0 0c-1.9270859 0 -3.489296 -1.3524704 -3.489296 -3.020832z" fill-rule="evenodd"/><path fill="#ff0000" d="m44.533512 62.997623l-5.666729 7.0017815l-5.666729 -7.0017815z" fill-rule="evenodd"/><path fill="#000000" fill-opacity="0.0" d="m4.57874 12.307087l35.84252 0l0 45.385826l-35.84252 0z" fill-rule="evenodd"/><path fill="#595959" d="m34.14124 27.536251l-3.609373 0.28125q-0.484375 -2.140625 -1.375 -3.109375q-1.46875 -1.546875 -3.625 -1.546875q-1.734375 0 -3.046875 0.96875q-1.71875 1.25 -2.71875 3.65625q-0.984375 2.390625 -1.015625 6.84375q1.3125 -2.0 3.203125 -2.96875q1.890625 -0.96875 3.96875 -0.96875q3.640625 0 6.187498 2.671875q2.5625 2.671875 2.5625 6.90625q0 2.78125 -1.203125 5.1875q-1.203125 2.390625 -3.312498 3.65625q-2.09375 1.265625 -4.75 1.265625q-4.546875 0 -7.421875 -3.328125q-2.859376 -3.34375 -2.859376 -11.015625q0 -8.578125 3.171876 -12.46875q2.765625 -3.390625 7.453125 -3.390625q3.484375 0 5.71875 1.953125q2.234373 1.953125 2.671873 5.40625zm-14.828123 12.765625q0 1.875 0.796875 3.59375q0.796875 1.703125 2.21875 2.609375q1.4375 0.890625 3.015625 0.890625q2.296875 0 3.953125 -1.84375q1.65625 -1.859375 1.65625 -5.0625q0 -3.0625 -1.640625 -4.828125q-1.625 -1.765625 -4.109375 -1.765625q-2.46875 0 -4.1875 1.765625q-1.703125 1.765625 -1.703125 4.640625z" fill-rule="nonzero"/></g></svg>