<svg version="1.1" viewBox="0.0 0.0 45.0 70.0" fill="none" stroke="none" stroke-linecap="square" stroke-miterlimit="10" xmlns:xlink="http://www.w3.org/1999/xlink" xmlns="http://www.w3.org/2000/svg"><clipPath id="g36eaaaa130b_0_10.0"><path d="m0 0l45.0 0l0 70.0l-45.0 0l0 -70.0z" clip-rule="nonzero"/></clipPath><g clip-path="url(#g36eaaaa130b_0_10.0)"><path fill="#ffffff" d="m0 0l45.0 0l0 70.0l-45.0 0z" fill-rule="evenodd"/><path fill="#ff0000" d="m3.401612 7.102042l0 0c0 -1.6683607 1.5622118 -3.0208344 3.4892976 -3.0208344l0 0c1.9270864 0 3.4892974 1.3524737 3.4892974 3.0208344l0 0c0 1.6683607 -1.562211 3.020835 -3.4892974 3.020835l0 0c-1.9270859 0 -3.4892976 -1.3524742 -3.4892976 -3.020835z" fill-rule="evenodd"/><path fill="#ff0000" d="m8.698672 7.102042l0 0c0 -1.6683607 1.562212 -3.0208344 3.4892979 -3.0208344l0 0c1.9270859 0 3.4892979 1.3524737 3.4892979 3.0208344l0 0c0 1.6683607 -1.562212 3.020835 -3.4892979 3.020835l0 0c-1.9270859 0 -3.4892979 -1.3524742 -3.4892979 -3.020835z" fill-rule="evenodd"/><path fill="#ff0000" d="m15.210675 8.538304l-5.666727 7.0017796l-5.666728 -7.0017796z" fill-rule="evenodd"/><path fill="#ff0000" d="m32.724445 61.56136l0 0c0 -1.6683617 1.5622139 -3.0208359 3.4892998 -3.0208359l0 0c1.9270859 0 3.489296 1.3524742 3.489296 3.0208359l0 0c0 1.6683617 -1.5622101 3.020832 -3.489296 3.020832l0 0c-1.9270859 0 -3.4892998 -1.3524704 -3.4892998 -3.020832z" fill-rule="evenodd"/><path fill="#ff0000" d="m38.021507 61.56136l0 0c0 -1.6683617 1.5622101 -3.0208359 3.489296 -3.0208359l0 0c1.9270859 0 3.4892998 1.3524742 3.4892998 3.0208359l0 0c0 1.6683617 -1.5622139 3.020832 -3.4892998 3.020832l0 0c-1.9270859 0 -3.489296 -1.3524704 -3.489296 -3.020832z" fill-rule="evenodd"/><path fill="#ff0000" d="m44.533512 62.997623l-5.666729 7.0017815l-5.666729 -7.0017815z" fill-rule="evenodd"/><path fill="#000000" fill-opacity="0.0" d="m4.57874 12.307087l35.84252 0l0 45.385826l-35.84252 0z" fill-rule="evenodd"/><path fill="#595959" d="m34.39124 46.395626l0 3.484375l-19.5625 0q-0.046875 -1.3125 0.421875 -2.515625q0.75000095 -2.0 2.390626 -3.9375q1.640625 -1.9375 4.75 -4.484375q4.828125 -3.953125 6.515625 -6.265625q1.703125 -2.3125 1.703125 -4.375q0 -2.15625 -1.546875 -3.640625q-1.546875 -1.484375 -4.015625 -1.484375q-2.625 0 -4.203125 1.578125q-1.578125 1.578125 -1.59375 4.359375l-3.734376 -0.375q0.390625 -4.1875 2.890626 -6.375q2.5 -2.1875 6.71875 -2.1875q4.25 0 6.734375 2.359375q2.484373 2.359375 2.484373 5.859375q0 1.765625 -0.734375 3.484375q-0.71875 1.71875 -2.406248 3.625q-1.6875 1.890625 -5.59375 5.1875q-3.265625 2.75 -4.203125 3.734375q-0.921875 0.96875 -1.53125 1.96875l14.515623 0z" fill-rule="nonzero"/></g></svg>