<svg version="1.1" viewBox="0.0 0.0 45.0 70.0" fill="none" stroke="none" stroke-linecap="square" stroke-miterlimit="10" xmlns:xlink="http://www.w3.org/1999/xlink" xmlns="http://www.w3.org/2000/svg"><clipPath id="g36eaaaa130b_0_82.0"><path d="m0 0l45.0 0l0 70.0l-45.0 0l0 -70.0z" clip-rule="nonzero"/></clipPath><g clip-path="url(#g36eaaaa130b_0_82.0)"><path fill="#ffffff" d="m0 0l45.0 0l0 70.0l-45.0 0z" fill-rule="evenodd"/><path fill="#ff0000" d="m3.401612 7.102042l0 0c0 -1.6683607 1.5622118 -3.0208344 3.4892976 -3.0208344l0 0c1.9270864 0 3.4892974 1.3524737 3.4892974 3.0208344l0 0c0 1.6683607 -1.562211 3.020835 -3.4892974 3.020835l0 0c-1.9270859 0 -3.4892976 -1.3524742 -3.4892976 -3.020835z" fill-rule="evenodd"/><path fill="#ff0000" d="m8.698672 7.102042l0 0c0 -1.6683607 1.562212 -3.0208344 3.4892979 -3.0208344l0 0c1.9270859 0 3.4892979 1.3524737 3.4892979 3.0208344l0 0c0 1.6683607 -1.562212 3.020835 -3.4892979 3.020835l0 0c-1.9270859 0 -3.4892979 -1.3524742 -3.4892979 -3.020835z" fill-rule="evenodd"/><path fill="#ff0000" d="m15.210675 8.538304l-5.666727 7.0017796l-5.666728 -7.0017796z" fill-rule="evenodd"/><path fill="#ff0000" d="m32.724445 61.56136l0 0c0 -1.6683617 1.5622139 -3.0208359 3.4892998 -3.0208359l0 0c1.9270859 0 3.489296 1.3524742 3.489296 3.0208359l0 0c0 1.6683617 -1.5622101 3.020832 -3.489296 3.020832l0 0c-1.9270859 0 -3.4892998 -1.3524704 -3.4892998 -3.020832z" fill-rule="evenodd"/><path fill="#ff0000" d="m38.021507 61.56136l0 0c0 -1.6683617 1.5622101 -3.0208359 3.489296 -3.0208359l0 0c1.9270859 0 3.4892998 1.3524742 3.4892998 3.0208359l0 0c0 1.6683617 -1.5622139 3.020832 -3.4892998 3.020832l0 0c-1.9270859 0 -3.489296 -1.3524704 -3.489296 -3.020832z" fill-rule="evenodd"/><path fill="#ff0000" d="m44.533512 62.997623l-5.666729 7.0017815l-5.666729 -7.0017815z" fill-rule="evenodd"/><path fill="#000000" fill-opacity="0.0" d="m4.57874 12.307087l35.84252 0l0 45.385826l-35.84252 0z" fill-rule="evenodd"/><path fill="#595959" d="m20.891241 33.833126q-2.265625 -0.828125 -3.359375 -2.359375q-1.09375 -1.53125 -1.09375 -3.671875q0 -3.234375 2.3125 -5.421875q2.328125 -2.203125 6.1875 -2.203125q3.875 0 6.234375 2.25q2.359373 2.25 2.359373 5.484375q0 2.046875 -1.078125 3.578125q-1.0781231 1.515625 -3.281248 2.34375q2.734375 0.890625 4.156248 2.875q1.421875 1.96875 1.421875 4.71875q0 3.796875 -2.6875 6.375q-2.687498 2.578125 -7.062498 2.578125q-4.375 0 -7.0625 -2.59375q-2.687501 -2.59375 -2.687501 -6.46875q0 -2.875 1.453126 -4.828125q1.46875 -1.953125 4.1875 -2.65625zm-0.734375 -6.15625q0 2.109375 1.34375 3.4375q1.359375 1.328125 3.515625 1.328125q2.109375 0 3.4375 -1.3125q1.34375 -1.328125 1.34375 -3.25q0 -2.0 -1.390625 -3.359375q-1.375 -1.359375 -3.421875 -1.359375q-2.078125 0 -3.453125 1.34375q-1.375 1.328125 -1.375 3.171875zm-1.171875 13.671875q0 1.546875 0.734375 3.0q0.734375 1.453125 2.1875 2.25q1.453125 0.796875 3.140625 0.796875q2.59375 0 4.28125 -1.671875q1.703125 -1.671875 1.703125 -4.265625q0 -2.609375 -1.75 -4.328125q-1.734375 -1.71875 -4.359375 -1.71875q-2.5625 0 -4.25 1.703125q-1.6875 1.6875 -1.6875 4.234375z" fill-rule="nonzero"/></g></svg>