<svg version="1.1" viewBox="0.0 0.0 45.0 70.0" fill="none" stroke="none" stroke-linecap="square" stroke-miterlimit="10" xmlns:xlink="http://www.w3.org/1999/xlink" xmlns="http://www.w3.org/2000/svg"><clipPath id="g36eaaaa130b_0_22.0"><path d="m0 0l45.0 0l0 70.0l-45.0 0l0 -70.0z" clip-rule="nonzero"/></clipPath><g clip-path="url(#g36eaaaa130b_0_22.0)"><path fill="#ffffff" d="m0 0l45.0 0l0 70.0l-45.0 0z" fill-rule="evenodd"/><path fill="#ff0000" d="m3.401612 7.102042l0 0c0 -1.6683607 1.5622118 -3.0208344 3.4892976 -3.0208344l0 0c1.9270864 0 3.4892974 1.3524737 3.4892974 3.0208344l0 0c0 1.6683607 -1.562211 3.020835 -3.4892974 3.020835l0 0c-1.9270859 0 -3.4892976 -1.3524742 -3.4892976 -3.020835z" fill-rule="evenodd"/><path fill="#ff0000" d="m8.698672 7.102042l0 0c0 -1.6683607 1.562212 -3.0208344 3.4892979 -3.0208344l0 0c1.9270859 0 3.4892979 1.3524737 3.4892979 3.0208344l0 0c0 1.6683607 -1.562212 3.020835 -3.4892979 3.020835l0 0c-1.9270859 0 -3.4892979 -1.3524742 -3.4892979 -3.020835z" fill-rule="evenodd"/><path fill="#ff0000" d="m15.210675 8.538304l-5.666727 7.0017796l-5.666728 -7.0017796z" fill-rule="evenodd"/><path fill="#ff0000" d="m32.724445 61.56136l0 0c0 -1.6683617 1.5622139 -3.0208359 3.4892998 -3.0208359l0 0c1.9270859 0 3.489296 1.3524742 3.489296 3.0208359l0 0c0 1.6683617 -1.5622101 3.020832 -3.489296 3.020832l0 0c-1.9270859 0 -3.4892998 -1.3524704 -3.4892998 -3.020832z" fill-rule="evenodd"/><path fill="#ff0000" d="m38.021507 61.56136l0 0c0 -1.6683617 1.5622101 -3.0208359 3.489296 -3.0208359l0 0c1.9270859 0 3.4892998 1.3524742 3.4892998 3.0208359l0 0c0 1.6683617 -1.5622139 3.020832 -3.4892998 3.020832l0 0c-1.9270859 0 -3.489296 -1.3524704 -3.489296 -3.020832z" fill-rule="evenodd"/><path fill="#ff0000" d="m44.533512 62.997623l-5.666729 7.0017815l-5.666729 -7.0017815z" fill-rule="evenodd"/><path fill="#000000" fill-opacity="0.0" d="m4.57874 12.307087l35.84252 0l0 45.385826l-35.84252 0z" fill-rule="evenodd"/><path fill="#595959" d="m15.313115 42.0675l3.640626 -0.484375q0.625 3.09375 2.125 4.453125q1.5 1.359375 3.65625 1.359375q2.5625 0 4.328125 -1.765625q1.765625 -1.78125 1.765625 -4.40625q0 -2.5 -1.640625 -4.125q-1.625 -1.625 -4.140625 -1.625q-1.03125 0 -2.5625 0.40625l0.390625 -3.1875q0.375 0.03125 0.59375 0.03125q2.3125 0 4.171875 -1.203125q1.859375 -1.21875 1.859375 -3.734375q0 -2.0 -1.359375 -3.3125q-1.34375 -1.3125 -3.484375 -1.3125q-2.125 0 -3.53125 1.34375q-1.40625 1.328125 -1.8125 3.984375l-3.640626 -0.640625q0.67187595 -3.65625 3.031251 -5.65625q2.359375 -2.015625 5.875 -2.015625q2.421875 0 4.453125 1.046875q2.046875 1.03125 3.124998 2.828125q1.078125 1.796875 1.078125 3.8125q0 1.921875 -1.03125 3.5q-1.0312481 1.5625 -3.046873 2.5q2.625 0.59375 4.078123 2.5q1.453125 1.90625 1.453125 4.78125q0 3.875 -2.828123 6.578125q-2.828125 2.6875 -7.140625 2.6875q-3.890625 0 -6.46875 -2.3125q-2.578126 -2.328125 -2.937501 -6.03125z" fill-rule="nonzero"/></g></svg>