<svg version="1.1" viewBox="0.0 0.0 45.0 70.0" fill="none" stroke="none" stroke-linecap="square" stroke-miterlimit="10" xmlns:xlink="http://www.w3.org/1999/xlink" xmlns="http://www.w3.org/2000/svg"><clipPath id="g36eaaaa130b_0_70.0"><path d="m0 0l45.0 0l0 70.0l-45.0 0l0 -70.0z" clip-rule="nonzero"/></clipPath><g clip-path="url(#g36eaaaa130b_0_70.0)"><path fill="#ffffff" d="m0 0l45.0 0l0 70.0l-45.0 0z" fill-rule="evenodd"/><path fill="#ff0000" d="m3.401612 7.102042l0 0c0 -1.6683607 1.5622118 -3.0208344 3.4892976 -3.0208344l0 0c1.9270864 0 3.4892974 1.3524737 3.4892974 3.0208344l0 0c0 1.6683607 -1.562211 3.020835 -3.4892974 3.020835l0 0c-1.9270859 0 -3.4892976 -1.3524742 -3.4892976 -3.020835z" fill-rule="evenodd"/><path fill="#ff0000" d="m8.698672 7.102042l0 0c0 -1.6683607 1.562212 -3.0208344 3.4892979 -3.0208344l0 0c1.9270859 0 3.4892979 1.3524737 3.4892979 3.0208344l0 0c0 1.6683607 -1.562212 3.020835 -3.4892979 3.020835l0 0c-1.9270859 0 -3.4892979 -1.3524742 -3.4892979 -3.020835z" fill-rule="evenodd"/><path fill="#ff0000" d="m15.210675 8.538304l-5.666727 7.0017796l-5.666728 -7.0017796z" fill-rule="evenodd"/><path fill="#ff0000" d="m32.724445 61.56136l0 0c0 -1.6683617 1.5622139 -3.0208359 3.4892998 -3.0208359l0 0c1.9270859 0 3.489296 1.3524742 3.489296 3.0208359l0 0c0 1.6683617 -1.5622101 3.020832 -3.489296 3.020832l0 0c-1.9270859 0 -3.4892998 -1.3524704 -3.4892998 -3.020832z" fill-rule="evenodd"/><path fill="#ff0000" d="m38.021507 61.56136l0 0c0 -1.6683617 1.5622101 -3.0208359 3.489296 -3.0208359l0 0c1.9270859 0 3.4892998 1.3524742 3.4892998 3.0208359l0 0c0 1.6683617 -1.5622139 3.020832 -3.4892998 3.020832l0 0c-1.9270859 0 -3.489296 -1.3524704 -3.489296 -3.020832z" fill-rule="evenodd"/><path fill="#ff0000" d="m44.533512 62.997623l-5.666729 7.0017815l-5.666729 -7.0017815z" fill-rule="evenodd"/><path fill="#000000" fill-opacity="0.0" d="m4.57874 12.307087l35.84252 0l0 45.385826l-35.84252 0z" fill-rule="evenodd"/><path fill="#595959" d="m15.531865 24.176876l0 -3.5l19.15625 0l0 2.828125q-2.828123 3.0 -5.609373 7.984375q-2.765625 4.984375 -4.28125 10.265625q-1.09375 3.703125 -1.390625 8.125l-3.734375 0q0.0625 -3.484375 1.375 -8.421875q1.3125 -4.953125 3.765625 -9.546875q2.453125 -4.59375 5.21875 -7.734375l-14.500001 0z" fill-rule="nonzero"/></g></svg>