<svg version="1.1" viewBox="0.0 0.0 45.0 70.0" fill="none" stroke="none" stroke-linecap="square" stroke-miterlimit="10" xmlns:xlink="http://www.w3.org/1999/xlink" xmlns="http://www.w3.org/2000/svg"><clipPath id="g363192a6672_0_0.0"><path d="m0 0l45.0 0l0 70.0l-45.0 0l0 -70.0z" clip-rule="nonzero"/></clipPath><g clip-path="url(#g363192a6672_0_0.0)"><path fill="#ffffff" d="m0 0l45.0 0l0 70.0l-45.0 0z" fill-rule="evenodd"/><path fill="#067306" d="m0.005249344 -3.3963253l45.007874 0l0 73.385826l-45.007874 0z" fill-rule="evenodd"/><path fill="#079f07" d="m7.9002624 33.29659l0 0c0 -8.062489 6.535938 -14.598427 14.598425 -14.598427l0 0c3.8717422 0 7.5849094 1.538044 10.322647 4.2757797c2.7377357 2.7377357 4.2757797 6.450903 4.2757797 10.322647l0 0c0 8.062485 -6.53594 14.598423 -14.598427 14.598423l0 0c-8.062488 0 -14.598425 -6.5359383 -14.598425 -14.598423zm7.299213 0l0 0c0 4.0312424 3.2679682 7.2992134 7.2992125 7.2992134c4.0312443 0 7.2992134 -3.267971 7.2992134 -7.2992134c0 -4.0312443 -3.2679691 -7.2992134 -7.2992134 -7.2992134l0 0c-4.0312443 0 -7.2992125 3.2679691 -7.2992125 7.2992134z" fill-rule="evenodd"/><path fill="#067306" d="m22.501312 8.417323l22.48819 0l0 26.582676l-22.48819 0z" fill-rule="evenodd"/><path fill="#079f07" d="m21.020998 15.3412075l12.850393 7.433071l-12.850393 7.433071z" fill-rule="evenodd"/></g></svg>