<svg version="1.1" viewBox="0.0 0.0 45.0 70.0" fill="none" stroke="none" stroke-linecap="square" stroke-miterlimit="10" xmlns:xlink="http://www.w3.org/1999/xlink" xmlns="http://www.w3.org/2000/svg"><clipPath id="g36eaaaa130b_0_339.0"><path d="m0 0l45.0 0l0 70.0l-45.0 0l0 -70.0z" clip-rule="nonzero"/></clipPath><g clip-path="url(#g36eaaaa130b_0_339.0)"><path fill="#ffffff" d="m0 0l45.0 0l0 70.0l-45.0 0z" fill-rule="evenodd"/><path fill="#000000" d="m31.150986 68.08137l4.4566917 -5.7007904l4.4566956 5.7007904z" fill-rule="evenodd"/><path fill="#ffffff" d="m26.19685 62.83727l0 0c0 -2.8962326 2.0587864 -5.244095 4.598425 -5.244095l0 0c1.2195797 0 2.3892078 0.5525017 3.2515774 1.5359612c0.86237335 0.9834595 1.3468475 2.3173141 1.3468475 3.7081337l0 0c0 2.8962364 -2.0587845 5.2440987 -4.598425 5.2440987l0 0c-2.5396385 0 -4.598425 -2.3478622 -4.598425 -5.2440987z" fill-rule="evenodd"/><path fill="#ffffff" d="m35.80315 62.83202l0 0c0 -2.8962326 2.0587845 -5.244095 4.598423 -5.244095l0 0c1.2195816 0 2.389206 0.5525017 3.2515793 1.5359612c0.86237335 0.9834595 1.3468475 2.3173141 1.3468475 3.7081337l0 0c0 2.8962364 -2.0587845 5.2440987 -4.598427 5.2440987l0 0c-2.5396385 0 -4.598423 -2.3478622 -4.598423 -5.2440987z" fill-rule="evenodd"/><path fill="#000000" d="m41.74551 60.47463l0 0c0 1.6683617 -1.5622139 3.0208359 -3.4892998 3.0208359l0 0c-1.9270859 0 -3.489296 -1.3524742 -3.489296 -3.0208359l0 0c0 -1.6683578 1.5622101 -3.020832 3.489296 -3.020832l0 0c1.9270859 0 3.4892998 1.3524742 3.4892998 3.020832z" fill-rule="evenodd"/><path fill="#000000" d="m36.44845 60.47463l0 0c0 1.6683617 -1.5622101 3.0208359 -3.489296 3.0208359l0 0c-1.9270878 0 -3.4892979 -1.3524742 -3.4892979 -3.0208359l0 0c0 -1.6683578 1.5622101 -3.020832 3.4892979 -3.020832l0 0c1.9270859 0 3.489296 1.3524742 3.489296 3.020832z" fill-rule="evenodd"/><path fill="#000000" d="m29.936445 59.03837l5.666727 -7.0017815l5.666729 7.0017815z" fill-rule="evenodd"/><path fill="#000000" fill-opacity="0.0" d="m0 12.307087l35.842518 0l0 45.385826l-35.842518 0z" fill-rule="evenodd"/><path fill="#595959" d="m22.359375 49.88l0 -7.078125l-12.828125 0l0 -3.328125l13.5 -19.171875l2.953125 0l0 19.171875l4.0 0l0 3.328125l-4.0 0l0 7.078125l-3.625 0zm0 -10.40625l0 -13.34375l-9.265625 13.34375l9.265625 0z" fill-rule="nonzero"/><path fill="#000000" d="m4.954135 16.044619l4.4566927 -5.7007866l4.4566927 5.7007866z" fill-rule="evenodd"/><path fill="#ffffff" d="m0 10.800525l0 0c0 -2.896233 2.0587852 -5.2440944 4.5984254 -5.2440944l0 0c1.2195778 0 2.3892055 0.5525012 3.2515774 1.5359597c0.8623719 0.9834585 1.346848 2.3173141 1.346848 3.7081347l0 0c0 2.8962336 -2.0587854 5.244094 -4.5984254 5.244094l0 0c-2.5396402 0 -4.5984254 -2.3478603 -4.5984254 -5.244094z" fill-rule="evenodd"/><path fill="#ffffff" d="m9.606299 10.795276l0 0c0 -2.8962336 2.0587845 -5.2440944 4.598425 -5.2440944l0 0c1.2195787 0 2.389205 0.5525012 3.2515783 1.5359597c0.86237144 0.9834585 1.3468475 2.3173141 1.3468475 3.7081347l0 0c0 2.8962336 -2.0587864 5.244094 -4.598426 5.244094l0 0c-2.5396404 0 -4.598425 -2.3478603 -4.598425 -5.244094z" fill-rule="evenodd"/><path fill="#000000" d="m15.548658 8.437884l0 0c0 1.6683617 -1.562211 3.020835 -3.489297 3.020835l0 0c-1.9270859 0 -3.4892979 -1.3524733 -3.4892979 -3.020835l0 0c0 -1.6683602 1.562212 -3.020834 3.4892979 -3.020834l0 0c1.9270859 0 3.489297 1.3524737 3.489297 3.020834z" fill-rule="evenodd"/><path fill="#000000" d="m10.251598 8.437884l0 0c0 1.6683617 -1.562212 3.020835 -3.4892974 3.020835l0 0c-1.9270859 0 -3.4892979 -1.3524733 -3.4892979 -3.020835l0 0c0 -1.6683602 1.562212 -3.020834 3.4892979 -3.020834l0 0c1.9270854 0 3.4892974 1.3524737 3.4892974 3.020834z" fill-rule="evenodd"/><path fill="#000000" d="m3.7395952 7.001622l5.666727 -7.0017796l5.666728 7.0017796z" fill-rule="evenodd"/></g></svg>