<svg version="1.1" viewBox="0.0 0.0 45.0 70.0" fill="none" stroke="none" stroke-linecap="square" stroke-miterlimit="10" xmlns:xlink="http://www.w3.org/1999/xlink" xmlns="http://www.w3.org/2000/svg"><clipPath id="g36eaaaa130b_0_219.0"><path d="m0 0l45.0 0l0 70.0l-45.0 0l0 -70.0z" clip-rule="nonzero"/></clipPath><g clip-path="url(#g36eaaaa130b_0_219.0)"><path fill="#ffffff" d="m0 0l45.0 0l0 70.0l-45.0 0z" fill-rule="evenodd"/><path fill="#000000" d="m31.150986 68.08137l4.4566917 -5.7007904l4.4566956 5.7007904z" fill-rule="evenodd"/><path fill="#ffffff" d="m26.19685 62.83727l0 0c0 -2.8962326 2.0587864 -5.244095 4.598425 -5.244095l0 0c1.2195797 0 2.3892078 0.5525017 3.2515774 1.5359612c0.86237335 0.9834595 1.3468475 2.3173141 1.3468475 3.7081337l0 0c0 2.8962364 -2.0587845 5.2440987 -4.598425 5.2440987l0 0c-2.5396385 0 -4.598425 -2.3478622 -4.598425 -5.2440987z" fill-rule="evenodd"/><path fill="#ffffff" d="m35.80315 62.83202l0 0c0 -2.8962326 2.0587845 -5.244095 4.598423 -5.244095l0 0c1.2195816 0 2.389206 0.5525017 3.2515793 1.5359612c0.86237335 0.9834595 1.3468475 2.3173141 1.3468475 3.7081337l0 0c0 2.8962364 -2.0587845 5.2440987 -4.598427 5.2440987l0 0c-2.5396385 0 -4.598423 -2.3478622 -4.598423 -5.2440987z" fill-rule="evenodd"/><path fill="#000000" d="m41.74551 60.47463l0 0c0 1.6683617 -1.5622139 3.0208359 -3.4892998 3.0208359l0 0c-1.9270859 0 -3.489296 -1.3524742 -3.489296 -3.0208359l0 0c0 -1.6683578 1.5622101 -3.020832 3.489296 -3.020832l0 0c1.9270859 0 3.4892998 1.3524742 3.4892998 3.020832z" fill-rule="evenodd"/><path fill="#000000" d="m36.44845 60.47463l0 0c0 1.6683617 -1.5622101 3.0208359 -3.489296 3.0208359l0 0c-1.9270878 0 -3.4892979 -1.3524742 -3.4892979 -3.0208359l0 0c0 -1.6683578 1.5622101 -3.020832 3.4892979 -3.020832l0 0c1.9270859 0 3.489296 1.3524742 3.489296 3.020832z" fill-rule="evenodd"/><path fill="#000000" d="m29.936445 59.03837l5.666727 -7.0017815l5.666729 7.0017815z" fill-rule="evenodd"/><path fill="#000000" fill-opacity="0.0" d="m-11.909449 11.472441l66.89764 0l0 47.055115l-66.89764 0z" fill-rule="evenodd"/><path fill="#595959" d="m13.945253 49.88l-3.625 0l0 -23.140627q-1.3125 1.25 -3.453125 2.5q-2.125 1.25 -3.8125002 1.875l0 -3.515625q3.0468752 -1.4375 5.328125 -3.46875q2.28125 -2.03125 3.234375 -3.953125l2.328125 0l0 29.703127zm9.312866 -14.59375q0 -5.250002 1.078125 -8.437502q1.078125 -3.203125 3.203125 -4.9375q2.125 -1.734375 5.359373 -1.734375q2.390625 0 4.171875 0.96875q1.796875 0.953125 2.96875 2.765625q1.171875 1.796875 1.828125 4.390625q0.671875 2.59375 0.671875 6.984377q0 5.203125 -1.0625 8.40625q-1.0625 3.203125 -3.203125 4.953125q-2.125 1.734375 -5.375 1.734375q-4.281248 0 -6.718748 -3.0625q-2.921875 -3.6875 -2.921875 -12.03125zm3.734375 0q0 7.28125 1.703125 9.703125q1.703125 2.40625 4.203123 2.40625q2.5 0 4.203125 -2.421875q1.71875 -2.421875 1.71875 -9.6875q0 -7.296877 -1.71875 -9.703127q-1.703125 -2.40625 -4.234375 -2.40625q-2.515623 0 -3.999998 2.125q-1.875 2.703125 -1.875 9.984377z" fill-rule="nonzero"/><path fill="#000000" d="m4.954135 16.044619l4.4566927 -5.7007866l4.4566927 5.7007866z" fill-rule="evenodd"/><path fill="#ffffff" d="m0 10.800525l0 0c0 -2.896233 2.0587852 -5.2440944 4.5984254 -5.2440944l0 0c1.2195778 0 2.3892055 0.5525012 3.2515774 1.5359597c0.8623719 0.9834585 1.346848 2.3173141 1.346848 3.7081347l0 0c0 2.8962336 -2.0587854 5.244094 -4.5984254 5.244094l0 0c-2.5396402 0 -4.5984254 -2.3478603 -4.5984254 -5.244094z" fill-rule="evenodd"/><path fill="#ffffff" d="m9.606299 10.795276l0 0c0 -2.8962336 2.0587845 -5.2440944 4.598425 -5.2440944l0 0c1.2195787 0 2.389205 0.5525012 3.2515783 1.5359597c0.86237144 0.9834585 1.3468475 2.3173141 1.3468475 3.7081347l0 0c0 2.8962336 -2.0587864 5.244094 -4.598426 5.244094l0 0c-2.5396404 0 -4.598425 -2.3478603 -4.598425 -5.244094z" fill-rule="evenodd"/><path fill="#000000" d="m15.548658 8.437884l0 0c0 1.6683617 -1.562211 3.020835 -3.489297 3.020835l0 0c-1.9270859 0 -3.4892979 -1.3524733 -3.4892979 -3.020835l0 0c0 -1.6683602 1.562212 -3.020834 3.4892979 -3.020834l0 0c1.9270859 0 3.489297 1.3524737 3.489297 3.020834z" fill-rule="evenodd"/><path fill="#000000" d="m10.251598 8.437884l0 0c0 1.6683617 -1.562212 3.020835 -3.4892974 3.020835l0 0c-1.9270859 0 -3.4892979 -1.3524733 -3.4892979 -3.020835l0 0c0 -1.6683602 1.562212 -3.020834 3.4892979 -3.020834l0 0c1.9270854 0 3.4892974 1.3524737 3.4892974 3.020834z" fill-rule="evenodd"/><path fill="#000000" d="m3.7395952 7.001622l5.666727 -7.0017796l5.666728 7.0017796z" fill-rule="evenodd"/></g></svg>